<mxfile host="app.diagrams.net" agent="Mozilla/5.0 (Windows NT 10.0; Win64; x64) AppleWebKit/537.36 (KHTML, like Gecko) Chrome/128.0.0.0 Safari/537.36" border="50" scale="3" compressed="false" locked="false" version="24.7.7">
  <diagram name="Blank" id="YmL12bMKpDGza6XwsDPr">
    <mxGraphModel dx="1711" dy="579" grid="0" gridSize="10" guides="1" tooltips="1" connect="1" arrows="1" fold="1" page="0" pageScale="1" pageWidth="827" pageHeight="1169" background="#ffffff" math="1" shadow="0">
      <root>
        <mxCell id="X5NqExCQtvZxIxQ7pmgY-0" />
        <mxCell id="1" parent="X5NqExCQtvZxIxQ7pmgY-0" />
        <mxCell id="ewxAcOzh3OMz_xNoMpsu-2" value="" style="shape=image;verticalLabelPosition=bottom;labelBackgroundColor=default;verticalAlign=top;aspect=fixed;imageAspect=0;image=data:image/png,iVBORw0KGgoAAAANSUhEUgAAAIAAAACACAYAAADDPmHLAAAAAXNSR0IArs4c6QAAE2ZJREFUeF7t3Qe0LUtRBuBiCcaFCuasgAExYEBRMYEKis+EEcw58hQFMWFAxACYMypiwiyKCUyoTxSziGIGE6KiYsTs/q7dOm+zQ/dM9+yZfXatdda5656Znp7qf7qrq/6qvkmMkxeKiDulnztGxOtFxLMj4k8i4k/Tz+9GxE9GxG+Me8Tlrh0auEVEfGhE3G3wt++KiJ8Zq+ebTFAzEPx4GvxDzTwjXffEiHhCRPh9kXoNvFtEfFlEPD4i/igiXiEibjPQ/2dumvyM2manACA/CwjuXPHgn4qI74+IR0fEH1bcd5UvNfh33cysH7xDCV8QEZ+Q/r8aBC0A4NmP2KDy/SpH6N8HQPjmiPjvyvuvyuWvHBEPjoh3PfDC3xERQELuEBG/VKqcVgDwPNPPp5c+eOu6X42Ih0fE10YEYFzk/zXwyIh4VET80AGlvGhE/E5E3HKjv0+JiM8pVWBLAEwFgfuflIAADP9c+hJnfN3NI+LvI6JknPIHaIl9y1KdlDRc2la+bspMkNt4SpoNAIECrqq8SvqyjRO76YER8Yt7lJH1/u0R8Z6lCusBgBYzQe7/7w9mhGeWvtQZXfcWaSv90hHxexFhy/f+RwDwsIj4+FId9AJASxBo66kDINhWXiVh0D0mIm6XDMEvioiP21LA0AZ4l4j43lIF9QSAPnx1clyU9ufYdX+WgPDQDcr/4djFZ/J3jh96vGcCwRumLeF/Dd4v7wJ+LiLepOa9ewNAXx4XEW9V06mCa38zIoDA9vMqyNdHxAdExJdGxLdExC+kl377iPjwjV1w9/RBWB6+p0YhcwBAf/4gIm5V07HCa02NgMDyPWfhdf2xzVLw+ntektudk4hLuErmAoA16q+qelZ3MRcp44eL9JzlPTYf0/tsZr5XjIiX2zh/npyWRDuEvx7z4nMBQN+gd98WZkzft+95egKBGeHiVSzU6JwA0KV7pK1MYfdGXfbzaVmwZbrIEQ3MDQDdsUd9yAwjw31qNij2i8/Qp8U94hQAoATW7EfPoA1xBSD43M3e+VkzPG91jzgVACiK4XLdTBr7lRSosmu4yEADpwQAK/YHI+I1ZxyRz4+IB0TEv874zEU/6pQAoBiOjB+YWUO8ZcLW9tW95GUTW8f+/M97PaRFu6cGgHf47BTDbvE+NW181gT+wr7nvFlEfEVy2f5a+v2BGzAgvCxSpgLg3hFx3+SA4Y1DSfrPEW9aSysb8Yidt/xEAsHPNmjwJZIetMVtK24himfZ+YbEi2zwmLZNTAEAK/6dEwC+Lln2GCljtnhvlBT0fG1fr6g1OwV2gZ3CFHnv5IhC1vyXQUM3jQi8ve0I3pRnNbt3CgDsrwUfBGZeMCL4qxEX7b//cUQPKYg791SCcsU2GOs38DGI31+/4wWQNsd8GN11MQUApm1T3R8Pevk6EXGzCdRvU3IxnamDdoSYzQZi7rViCUCMNeVnuVf6MG5dQ9KoffCU66cAwBf76ikcmdd9ZMQvnBD4EdZcwl792zaJLvffAneJnk317CAzoN9mxBsiArBteRcnUwDwXMmZY/oXl7elkwU0lhmclcNg2kd7mlOBKFhAUBNff+H0ATwtdRSnz5LI6bVImQIAL+R+057w5C+nr3dqJO41IsJeHSN2CWJWQ7WuEaly+g9EdgOLlakA6PViLZjFLfv22DQbyF84K1kqAHxBY63xXgOElfxJia7e6xmzt7tUAFCEzGLbqqUJgibb4O+W1rEx/VkyADIbdsx79b6HvQMEPeMJvd/hWvtLBoD+TTUoeysRueWUzqvJ77d0APxlRLzY5Lfs2wDK9n3WSjhZOgC4mWXELF3w9IHA9nVVsnQALNUQ3DXIvH9AIMV9NbJ0AMgMXopDqHRQvzj5/ceExUuf0ey6JQMgp0Y3e9kZG7I7+NiUuDHjY+sftWQALNEZVKNhdLD3HeTx1dw727VLBsBLLZ1PVzBK+IBAIHS+SFkyAChs6X6AkkFlx8jnW2REcBsAL5KyTJsVIizR0IFrhJfnpI1P7O7e2xmEyKI/nH56Pae63SEA1JVhwdrLWr9w2141Im6fWq2uQZfuww9QwOC3q3v3v7nwCiOckwABMq3yNyeXDAA15j4tKZvzJQuCgwFk0ZIxIJCs6Sv+xkQcrQHCp6bCSCdXVOMOGHwgAIaTCgCgdflCETH2SS718jebciWMs38r7DWW77Dcm/VQXiDOXUk+u3x4jJpzFcwnH8bJBAAkLYhu4fIdEuwWtWlRv0r5bW8TET+6o1GFHNCwv+bIM5EpFUBEPztXwSL+klO9HACwtDFxj5VZ0cmPqVwGbIEOIRzpA8niUFhVxat3OpWCZnquZVam0uwyBADyhaDGvnUp07Rq7ID7RcTnFbzVVybe/K7i0WrkfmdBG2u/pEavzd41A8A+1Q6A1c042SVjAGBZyQbksU7/Rcrl35VA8bcbu4FBeu4yOwgAwDSsdo+gi0QG07yiS9uSI3O47kiSJYJfX1y2NDXIHmEbDO0D4Hu1iLht+pF8cq4yKwgAIFOvZLHm0z+kMg1tgryWc2nW1PybEs7dBYQ86AJFYgUykTIwGKjnIrKMq0u+jXn57AewLWON4sBL187Jjfj+tiqMFGlTEiBrXJoyZasqV+54iUNA2PXOdjVmsrWLAhqO3+kqQ08gIoNig/b4mdmSWbm+fGv50ElU0jFOIKVNW0gJEAz8YnPxK5Vg+2t26yrbsYC7JCPQ/hsC1dbhwx5rhRu01238BhSjqogUst8atC01na/C73MRDjilYLtJ72jgr29y616rW++f03exxDyCqa/PRW9Z7iK9AeALZblfZJoGpOF3KYzdGwCiig49usg0DYinvF06Mm5aS1t39wYAn7+dxEWma0DRKdveptIbAE4SVTLtIoc1wOdSYr9UnQdUovTeAODeVTrlIvs1oIq63ZKAV8lRL03tgd4AEPNHM7vIbg0ghmQbyVJZet5Bs3Fr1tCeEZZCrXrYRfZr4BNTUS2Bs0y/K9FXSQj/aDu9AfBPm6pZz3+0F5cLxmpARbIcvj/G59j5jN4AUJT5uce+3eW+Ig2IlIogjpLeAHC0We9njHrxM7lp0uDTQe/B+Y8z5/OdEkeTB38OAFyWgD4QaTL4rQGgkodiDmjmXJeMErGAUxSA7qP2ZbTabPBbAQAzB6vIz7ZIiTpnSvfckGg6+C0AsKvCtwMiuYBb8wDmVvbSntd88KcCQI3/YU0cTJwvjwgsIPKSKf/tBZamyRX2R3LNN6UMLucbNJMpu4Ah4RPzV6BiW3rGApxH/KQrkDRilsXZfKWUYyGRxrs3kbEAwMBFvyJcmcMa+cOO5WNTmnR20Egmr96pgqLeug9ztIeSx8bKIm1f7gbKXpNKpWMB8LYR4YQNIty7ryK2wyRwC1uJJNYHpbL0uc2cuNrqGUtp5ymbRFzvNjy8whlEdN2sQOVYAMgbcDiCAg6vfUBjaM0v00CjvoQHp3OHXzxV3PAFOKvoHMmgT4iIn97kafzIVn4GlrD0erZWk5NXxwJAdlDu3KEjXuwIHB0/VqSTyyIGNl5FwvBkgBIHRMs/FCNHnjwHwQv4qM1AS42XEjcU67/lj078e7KMBYBTQgyuwTgEAA6hsY4gtG8DPywo4eCGbYashJWP3OQzfPIZEFCt8Sx+h3DI0ZAY+4w0ynIelKUVX+Fw25VIWw2IsQDwoEenL9HXuMsqHXvog92FdW87A0kBC1b/Pvmq3hz6au3W3ZAH313Gxa5KfQVcQImxllqzICCwhZrIFAAgLzhBQ+KIKWtbWOim6FJKGKPHwDN8dknJCaMylw5VOmmitA6N7EsIfeO0xBknaXbOL2q2BcxIm/I+0sUwWeT3m4a3hfF2jMnKmJOabvD3bW0sI75+259zE1P+sCrbrO83ZQbIHbVPZZUaPF5A6ebPk7Z/vtpDnsC8zfH1H5J33+NomlVZHR7GyD0pZa4FAOgF7csg+dqlgtkeWh7UGtgVE7C+++Kt9yWSy9OUXLumaww+EJxMWgFg3wtsp4c/MtUMcpBijZQsJTXtLeHaodF3sv70BsDj05bl4anix5itC1p5SUm5kylxxINnrQJyqH+9AYAjcKwU3DH9ZafTsevW8vfFDD6F9QZAi0H5kAYgatGPVm004fO36swaAPDAjQNEydhzkfsu6Sj5NQBAoUlFqtYsdjy5XB43L2O4p6jpJOcwn2GMl/H0VD7nRkvyGgAwpdJYTyWXtC3p88OSi5pvn1yXDtkuub/2GuFiLmR1GfhjUPO4kRXqyqVmlPuxZb8mawDAGreAw4JWvJjC4sLWThDxZfoaWwvnm7jBA/bUdFIRPscQ9OcaT2MNAOD7vlVrbXVq74mJo7Bd5NKUTHruAB6XbCXlfvfJ8DjeazPBGgCwhhRzxbDEM4Sws/gixezz4JvJVFrv8fXfPbncS6KEloZMM7vbGgCABXvTTl9sabMSXPyIzftxpK3f8vuRNlVZJcrXWXeJKTcfe8voEzF1uGQPwZvIZfOA7DEHHpJJJS651xoA0JNZXDIYT03MY1/5PnmHFLbdroqq3Cu3N25ET/FV3zkZd3YZb3rgYcNimtevAQDW1Tv01N6BtrGe3jEicPRKBP2N69rvJ7di7hY8WEBJhREzjeN5nPe0T4aE3vutAQBIJfcoUELrSxS3MJ2OKrzQujNH2hNz4WCy7CDsKim379wHS1GuBn/dGgDwsLTOzqlTp6iYUtcw+PTiHKZnpxC7LSieJDaRGWxbBOY+KP3n7dYAAIdZ9PacbStpUf76AuQLLfvi2SKKfTvub9c5RMPAmprLt18DAOY+QnZtg5/xkV3mpndEnG1h/D00cTTRzXkkbxgLACwfhxrYo3MoKATRU5A9UaF7y1oHn14cooFip+CkQ7ieljyQPiDJOXwFBHVPbMWWtdoTKNffVPPWyaHhIXIEJDPkXMEeg5QPtOjRdm5zzYM/1Msh+tz3JW8kl/E1qZ0BxOaxgE0neH2MJYUONWyrNjwksuVgDV2YLdvNbdk3o6+di9gSqtRi1pRLYKZmEMrmupHUAsDX72QR/PShiNejbUsW6SHOKeLr7iEynZty7Xt0slebtQCQsMiSzGcK5X7JDrLtYGT0EMGg1oPkGFzZNt3P5emhkFZt1gJAHQDp2c9Ky4eiBZJCvjUi+Oz97iWWm1aCsm7rxKd/paUWAMq+IDZI+HAYlCXhu1MiCOdC0/Ilg5GRZtbqGDXnHrNhgPjKSy0AKMxgKAnzzGQEylaVrlx6ovgYpd8/1QcYc+/wHuXY75m8ZlPbOov7xwAgv/jLb04Ys472CnEOFSy8mfexYxWvmITdBMBeJGlgCgDmUqKKIDhuU3Lo7FLYLhfZ0sAaAMCtucuvXTKY6umoINLTOC3px2KvWQMAxh4/a71XNeRY5nGLweF0MVMR5Iw5lsUW/a72BDZ5aEUjOcpVccu1S+1S5qgZhOtvV7Qdp0BiwQHkLd0Xlz/2Tihezm3O0qwu0PDBS58BtpVwTGkIl0qoOba+t/B6Cr8eE3X9HLpdKwpuqL6SBdmDEy7nF9S2t/P6JQOgtijEYxMrRm2C3jJ0SvGKYi354i036FgicPfeMIVvMehIja7lENhhbYvnNg1a1XSqt1KH7dtiOrGcn75EHpIGv+TaqdegXvsaCd4foA4Psc7tI2Vcv2EPf0T6D/+uMWaxfGT5DINUVwYACk/z1h0T1GxcOIWU55BhUMoRbyUJKwYyF3XkRLuhsKMGG8BEKhE4ctU1pNNds0Nhsze+bIkzAGVR2jGZMuU/7yY0escRnD+GmNrICKOSK9CqSoRNwnsqkrrrXIVdbQCA8K1MnzdPRA+8CHkIzWRpAGBUCTUfO2RiypTPsORV9HVhzxwrdztUds6quU/iRZQOxHslX0Tt+b+Kb2H6SIzB/G2eX7AkANhL499jGO2TqVM+apn12rqdlelYO9kyJbrIlU+FvktzBbyLQcyzhffD2l2ElLz0XB09Vlr+USkgNNbKN+AYTTk7lyGHP4/WZiYQGv6/tOk9Ly07SBW0Wr3JE0TbJk2t+KmDU/siU5+37/5DpE+xezwEAJgi1mEZNPL1d4k195g+0NPR1G3zpKwdE6BT3FKCaCa0KKm3Tag51k63vx974W4PHjSMnSoDZ1tMt5IeDX4LrqHzDVjuu8raenYJAIBHTWKsaMA8JDdPgGOxSy/DZ7BsWD4WI6cGwL7yL/5fuvUxJdcoEpjkxe3at+ct1jF95ILVAkza2yeIsjyAiLKyi0QzWf8ItQzIxcixF+7Z0V2Dj63DWWKL10PMAHYYZhVOFiFmKWD49KW6yBT1fSelGORcD0hmsefYOmIg3bZTfYDRuip96dEP2HHjG6RDD+4y+Ju9roGfI2wrQCMrhrDGreucSTXrsgCPejy7TkvxXjyZlhSWPy4CY7NnbaDR4zM3AKy/jn6xPlrX7fmFbbdp5qNfqPBGoVs+e1T2bJ0X3nrtMvV1HpHWc4EevMihKAzB8eNdFctmf0xlNNX0r/jauQCAQEoJghyMoTzwtmBrFlO7U0ykWwkE2aIqmM19e7NNONcS4IgXHsBFSm8A8OyxgHOJFb/XPujbA+ngDJVB+Bf4ExyXK4kFJ8AOZ9F1jv8HblmYsLTWYOAAAAAASUVORK5CYII=;" parent="1" vertex="1">
          <mxGeometry x="468" y="281" width="150" height="150" as="geometry" />
        </mxCell>
        <mxCell id="ewxAcOzh3OMz_xNoMpsu-3" value="&lt;font style=&quot;font-size: 18px;&quot;&gt;&lt;b&gt;诊断报告错误&lt;/b&gt;&lt;/font&gt;" style="rounded=0;whiteSpace=wrap;html=1;" parent="1" vertex="1">
          <mxGeometry x="618" y="230" width="34" height="251.5" as="geometry" />
        </mxCell>
        <mxCell id="ewxAcOzh3OMz_xNoMpsu-4" value="" style="endArrow=classic;html=1;rounded=0;" parent="1" edge="1">
          <mxGeometry width="50" height="50" relative="1" as="geometry">
            <mxPoint x="-208" y="364" as="sourcePoint" />
            <mxPoint x="468" y="361" as="targetPoint" />
          </mxGeometry>
        </mxCell>
        <mxCell id="ewxAcOzh3OMz_xNoMpsu-5" value="" style="endArrow=classic;html=1;rounded=0;" parent="1" edge="1">
          <mxGeometry width="50" height="50" relative="1" as="geometry">
            <mxPoint x="199" y="194" as="sourcePoint" />
            <mxPoint x="395" y="363" as="targetPoint" />
          </mxGeometry>
        </mxCell>
        <mxCell id="ewxAcOzh3OMz_xNoMpsu-6" value="&lt;span style=&quot;font-size: 15px;&quot;&gt;&lt;b&gt;人员因素&lt;/b&gt;&lt;/span&gt;" style="rounded=0;whiteSpace=wrap;html=1;" parent="1" vertex="1">
          <mxGeometry x="136" y="134" width="120" height="60" as="geometry" />
        </mxCell>
        <mxCell id="ewxAcOzh3OMz_xNoMpsu-7" value="" style="endArrow=classic;html=1;rounded=0;" parent="1" edge="1">
          <mxGeometry width="50" height="50" relative="1" as="geometry">
            <mxPoint x="195" y="541" as="sourcePoint" />
            <mxPoint x="369" y="363" as="targetPoint" />
          </mxGeometry>
        </mxCell>
        <mxCell id="ewxAcOzh3OMz_xNoMpsu-8" value="&lt;span style=&quot;font-size: 15px;&quot;&gt;&lt;b&gt;设备因素&lt;/b&gt;&lt;/span&gt;" style="rounded=0;whiteSpace=wrap;html=1;" parent="1" vertex="1">
          <mxGeometry x="129" y="542" width="120" height="60" as="geometry" />
        </mxCell>
        <mxCell id="ewxAcOzh3OMz_xNoMpsu-9" value="" style="endArrow=classic;html=1;rounded=0;" parent="1" edge="1">
          <mxGeometry width="50" height="50" relative="1" as="geometry">
            <mxPoint x="-121" y="541" as="sourcePoint" />
            <mxPoint x="53" y="363" as="targetPoint" />
          </mxGeometry>
        </mxCell>
        <mxCell id="ewxAcOzh3OMz_xNoMpsu-10" value="&lt;span style=&quot;font-size: 15px;&quot;&gt;&lt;b&gt;管理因素&lt;/b&gt;&lt;/span&gt;" style="rounded=0;whiteSpace=wrap;html=1;" parent="1" vertex="1">
          <mxGeometry x="-187" y="542" width="120" height="60" as="geometry" />
        </mxCell>
        <mxCell id="ewxAcOzh3OMz_xNoMpsu-11" value="" style="endArrow=classic;html=1;rounded=0;" parent="1" edge="1">
          <mxGeometry width="50" height="50" relative="1" as="geometry">
            <mxPoint x="-121" y="194" as="sourcePoint" />
            <mxPoint x="75" y="363" as="targetPoint" />
          </mxGeometry>
        </mxCell>
        <mxCell id="ewxAcOzh3OMz_xNoMpsu-12" value="&lt;span style=&quot;font-size: 15px;&quot;&gt;&lt;b&gt;环境因素&lt;/b&gt;&lt;/span&gt;" style="rounded=0;whiteSpace=wrap;html=1;" parent="1" vertex="1">
          <mxGeometry x="-184" y="134" width="120" height="60" as="geometry" />
        </mxCell>
        <mxCell id="ewxAcOzh3OMz_xNoMpsu-13" value="" style="endArrow=classic;html=1;rounded=0;" parent="1" edge="1">
          <mxGeometry width="50" height="50" relative="1" as="geometry">
            <mxPoint x="297" y="437" as="sourcePoint" />
            <mxPoint x="358" y="437" as="targetPoint" />
          </mxGeometry>
        </mxCell>
        <mxCell id="ewxAcOzh3OMz_xNoMpsu-14" value="&lt;font style=&quot;font-size: 14px;&quot;&gt;硬件老化&lt;/font&gt;" style="rounded=0;whiteSpace=wrap;html=1;" parent="1" vertex="1">
          <mxGeometry x="358" y="413" width="73" height="45" as="geometry" />
        </mxCell>
        <mxCell id="ewxAcOzh3OMz_xNoMpsu-19" value="" style="endArrow=classic;html=1;rounded=0;" parent="1" edge="1">
          <mxGeometry width="50" height="50" relative="1" as="geometry">
            <mxPoint x="245" y="489" as="sourcePoint" />
            <mxPoint x="306" y="489" as="targetPoint" />
          </mxGeometry>
        </mxCell>
        <mxCell id="ewxAcOzh3OMz_xNoMpsu-20" value="&lt;font style=&quot;font-size: 14px;&quot;&gt;设备故障&lt;/font&gt;" style="rounded=0;whiteSpace=wrap;html=1;" parent="1" vertex="1">
          <mxGeometry x="306" y="467" width="73" height="45" as="geometry" />
        </mxCell>
        <mxCell id="ewxAcOzh3OMz_xNoMpsu-21" value="" style="endArrow=classic;html=1;rounded=0;" parent="1" edge="1">
          <mxGeometry width="50" height="50" relative="1" as="geometry">
            <mxPoint x="331" y="401" as="sourcePoint" />
            <mxPoint x="263" y="401" as="targetPoint" />
          </mxGeometry>
        </mxCell>
        <mxCell id="ewxAcOzh3OMz_xNoMpsu-22" value="&lt;span style=&quot;font-size: 14px;&quot;&gt;停电等&lt;/span&gt;&lt;div&gt;&lt;span style=&quot;font-size: 14px;&quot;&gt;意外情况&lt;/span&gt;&lt;/div&gt;" style="rounded=0;whiteSpace=wrap;html=1;" parent="1" vertex="1">
          <mxGeometry x="190" y="378" width="73" height="45" as="geometry" />
        </mxCell>
        <mxCell id="ewxAcOzh3OMz_xNoMpsu-23" value="" style="endArrow=classic;html=1;rounded=0;" parent="1" edge="1">
          <mxGeometry width="50" height="50" relative="1" as="geometry">
            <mxPoint x="263" y="470" as="sourcePoint" />
            <mxPoint x="195" y="470" as="targetPoint" />
          </mxGeometry>
        </mxCell>
        <mxCell id="ewxAcOzh3OMz_xNoMpsu-24" value="&lt;font style=&quot;font-size: 14px;&quot;&gt;缺乏维&lt;/font&gt;&lt;div&gt;&lt;font style=&quot;font-size: 14px;&quot;&gt;护计划&lt;/font&gt;&lt;/div&gt;" style="rounded=0;whiteSpace=wrap;html=1;" parent="1" vertex="1">
          <mxGeometry x="122" y="447" width="73" height="45" as="geometry" />
        </mxCell>
        <mxCell id="ewxAcOzh3OMz_xNoMpsu-25" value="" style="endArrow=classic;html=1;rounded=0;" parent="1" edge="1">
          <mxGeometry width="50" height="50" relative="1" as="geometry">
            <mxPoint x="323" y="299" as="sourcePoint" />
            <mxPoint x="384" y="299" as="targetPoint" />
          </mxGeometry>
        </mxCell>
        <mxCell id="ewxAcOzh3OMz_xNoMpsu-26" value="&lt;font style=&quot;font-size: 14px;&quot;&gt;缺乏沟通&lt;/font&gt;&lt;div&gt;&lt;font style=&quot;font-size: 14px;&quot;&gt;技巧培训&lt;/font&gt;&lt;/div&gt;" style="rounded=0;whiteSpace=wrap;html=1;" parent="1" vertex="1">
          <mxGeometry x="384" y="275" width="73" height="45" as="geometry" />
        </mxCell>
        <mxCell id="ewxAcOzh3OMz_xNoMpsu-30" value="" style="endArrow=classic;html=1;rounded=0;" parent="1" edge="1">
          <mxGeometry width="50" height="50" relative="1" as="geometry">
            <mxPoint x="250" y="239" as="sourcePoint" />
            <mxPoint x="311" y="239" as="targetPoint" />
          </mxGeometry>
        </mxCell>
        <mxCell id="ewxAcOzh3OMz_xNoMpsu-31" value="&lt;font style=&quot;font-size: 14px;&quot;&gt;工作繁忙&lt;/font&gt;&lt;div&gt;&lt;font style=&quot;font-size: 14px;&quot;&gt;时间紧张&lt;/font&gt;&lt;/div&gt;" style="rounded=0;whiteSpace=wrap;html=1;" parent="1" vertex="1">
          <mxGeometry x="311" y="215" width="73" height="45" as="geometry" />
        </mxCell>
        <mxCell id="ewxAcOzh3OMz_xNoMpsu-32" value="" style="endArrow=classic;html=1;rounded=0;" parent="1" edge="1">
          <mxGeometry width="50" height="50" relative="1" as="geometry">
            <mxPoint x="334" y="312" as="sourcePoint" />
            <mxPoint x="266" y="312" as="targetPoint" />
          </mxGeometry>
        </mxCell>
        <mxCell id="ewxAcOzh3OMz_xNoMpsu-33" value="&lt;font style=&quot;font-size: 14px;&quot;&gt;专业知识&lt;/font&gt;&lt;div&gt;&lt;font style=&quot;font-size: 14px;&quot;&gt;解释不清&lt;/font&gt;&lt;/div&gt;" style="rounded=0;whiteSpace=wrap;html=1;" parent="1" vertex="1">
          <mxGeometry x="193" y="289" width="73" height="45" as="geometry" />
        </mxCell>
        <mxCell id="ewxAcOzh3OMz_xNoMpsu-34" value="" style="endArrow=classic;html=1;rounded=0;" parent="1" edge="1">
          <mxGeometry width="50" height="50" relative="1" as="geometry">
            <mxPoint x="242" y="232" as="sourcePoint" />
            <mxPoint x="174" y="232" as="targetPoint" />
          </mxGeometry>
        </mxCell>
        <mxCell id="ewxAcOzh3OMz_xNoMpsu-35" value="&lt;font style=&quot;font-size: 14px;&quot;&gt;服务意识&lt;/font&gt;&lt;div&gt;&lt;font style=&quot;font-size: 14px;&quot;&gt;淡薄&lt;/font&gt;&lt;/div&gt;" style="rounded=0;whiteSpace=wrap;html=1;" parent="1" vertex="1">
          <mxGeometry x="101" y="209" width="73" height="45" as="geometry" />
        </mxCell>
        <mxCell id="ewxAcOzh3OMz_xNoMpsu-40" value="" style="endArrow=classic;html=1;rounded=0;" parent="1" edge="1">
          <mxGeometry width="50" height="50" relative="1" as="geometry">
            <mxPoint x="17" y="400" as="sourcePoint" />
            <mxPoint x="78" y="400" as="targetPoint" />
          </mxGeometry>
        </mxCell>
        <mxCell id="ewxAcOzh3OMz_xNoMpsu-41" value="&lt;span style=&quot;font-size: 14px;&quot;&gt;质量控制&lt;/span&gt;&lt;div&gt;&lt;span style=&quot;font-size: 14px;&quot;&gt;不严格&lt;/span&gt;&lt;br&gt;&lt;/div&gt;" style="rounded=0;whiteSpace=wrap;html=1;" parent="1" vertex="1">
          <mxGeometry x="78" y="378" width="73" height="45" as="geometry" />
        </mxCell>
        <mxCell id="ewxAcOzh3OMz_xNoMpsu-44" value="" style="endArrow=classic;html=1;rounded=0;" parent="1" edge="1">
          <mxGeometry width="50" height="50" relative="1" as="geometry">
            <mxPoint x="-2" y="419" as="sourcePoint" />
            <mxPoint x="-70" y="419" as="targetPoint" />
          </mxGeometry>
        </mxCell>
        <mxCell id="ewxAcOzh3OMz_xNoMpsu-45" value="&lt;font style=&quot;font-size: 14px;&quot;&gt;流程不合理&lt;/font&gt;" style="rounded=0;whiteSpace=wrap;html=1;" parent="1" vertex="1">
          <mxGeometry x="-143" y="396" width="73" height="45" as="geometry" />
        </mxCell>
        <mxCell id="ewxAcOzh3OMz_xNoMpsu-46" value="" style="endArrow=classic;html=1;rounded=0;" parent="1" edge="1">
          <mxGeometry width="50" height="50" relative="1" as="geometry">
            <mxPoint x="-67" y="485" as="sourcePoint" />
            <mxPoint x="-135" y="485" as="targetPoint" />
          </mxGeometry>
        </mxCell>
        <mxCell id="ewxAcOzh3OMz_xNoMpsu-47" value="&lt;span style=&quot;font-size: 14px;&quot;&gt;培训不足&lt;/span&gt;" style="rounded=0;whiteSpace=wrap;html=1;" parent="1" vertex="1">
          <mxGeometry x="-208" y="462" width="73" height="45" as="geometry" />
        </mxCell>
        <mxCell id="ewxAcOzh3OMz_xNoMpsu-50" value="" style="endArrow=classic;html=1;rounded=0;" parent="1" edge="1">
          <mxGeometry width="50" height="50" relative="1" as="geometry">
            <mxPoint x="-70" y="238" as="sourcePoint" />
            <mxPoint x="-138" y="238" as="targetPoint" />
          </mxGeometry>
        </mxCell>
        <mxCell id="ewxAcOzh3OMz_xNoMpsu-51" value="&lt;font style=&quot;font-size: 14px;&quot;&gt;周边施工&lt;/font&gt;" style="rounded=0;whiteSpace=wrap;html=1;" parent="1" vertex="1">
          <mxGeometry x="-211" y="215" width="73" height="45" as="geometry" />
        </mxCell>
        <mxCell id="ewxAcOzh3OMz_xNoMpsu-52" value="" style="endArrow=classic;html=1;rounded=0;" parent="1" edge="1">
          <mxGeometry width="50" height="50" relative="1" as="geometry">
            <mxPoint x="6" y="304" as="sourcePoint" />
            <mxPoint x="-62" y="304" as="targetPoint" />
          </mxGeometry>
        </mxCell>
        <mxCell id="ewxAcOzh3OMz_xNoMpsu-53" value="&lt;span style=&quot;font-size: 14px;&quot;&gt;照明设&lt;/span&gt;&lt;div&gt;&lt;span style=&quot;font-size: 14px;&quot;&gt;备损坏&lt;/span&gt;&lt;br&gt;&lt;/div&gt;" style="rounded=0;whiteSpace=wrap;html=1;" parent="1" vertex="1">
          <mxGeometry x="-135" y="281" width="73" height="45" as="geometry" />
        </mxCell>
        <mxCell id="ewxAcOzh3OMz_xNoMpsu-58" value="" style="endArrow=classic;html=1;rounded=0;" parent="1" edge="1">
          <mxGeometry width="50" height="50" relative="1" as="geometry">
            <mxPoint x="-91" y="218" as="sourcePoint" />
            <mxPoint x="-30" y="218" as="targetPoint" />
          </mxGeometry>
        </mxCell>
        <mxCell id="ewxAcOzh3OMz_xNoMpsu-59" value="&lt;span style=&quot;font-size: 14px;&quot;&gt;工作环境&lt;/span&gt;&lt;div&gt;&lt;span style=&quot;font-size: 14px;&quot;&gt;嘈杂&lt;/span&gt;&lt;br&gt;&lt;/div&gt;" style="rounded=0;whiteSpace=wrap;html=1;" parent="1" vertex="1">
          <mxGeometry x="-30" y="194" width="73" height="45" as="geometry" />
        </mxCell>
        <mxCell id="ewxAcOzh3OMz_xNoMpsu-60" value="" style="endArrow=classic;html=1;rounded=0;" parent="1" edge="1">
          <mxGeometry width="50" height="50" relative="1" as="geometry">
            <mxPoint x="24" y="318" as="sourcePoint" />
            <mxPoint x="85" y="318" as="targetPoint" />
          </mxGeometry>
        </mxCell>
        <mxCell id="ewxAcOzh3OMz_xNoMpsu-61" value="&lt;span style=&quot;font-size: 14px;&quot;&gt;光线不佳&lt;/span&gt;" style="rounded=0;whiteSpace=wrap;html=1;" parent="1" vertex="1">
          <mxGeometry x="85" y="294" width="73" height="45" as="geometry" />
        </mxCell>
        <mxCell id="ewxAcOzh3OMz_xNoMpsu-62" value="" style="shape=image;verticalLabelPosition=bottom;labelBackgroundColor=default;verticalAlign=top;aspect=fixed;imageAspect=0;image=data:image/png,iVBORw0KGgoAAAANSUhEUgAAAIAAAACACAYAAADDPmHLAAAAAXNSR0IArs4c6QAACXdJREFUeF7tXXmoV0UU/oyo/mgxK1vMpCwjo12LaDOiFdqMiIQ2iRZaqDRooUXIoKA9KAnLSiKjbF9ss3JrtV2NMixzKUjLEkqFul/Ny997+Xtv7syZuTP3ngM/XJg5c5bvzp07c+acXpCnIQAGAuhnfjsA4G8AgD4AlnX5/Wz+vRTAXPObLy+WclyXBXoJmmU4gBEAThHguaoFDHPM36cB+FGAt7JosYAvAPoap9PxQyNYdjqAyQCmACAwlDwt4AOAwQCeALC7pwyu3T8qQPcigDcAvOPKpOn9XAFQtfO7+u0rAC+Y2WFm051aRn9XAPDJP7XMQBHbTgXwtAHDoojjZjmUCwDOKVb1D2ag7QoDAq4Zns9A3kpEdAHAYwBOr0Ra90E/M7PCOABL3NnUr6cLAPi+HZSpKRYXexMPAFAgGAe6AOBPABtkCoAOsRUIHgD4HkD/zAGgQPAAwAfFJxe3e+tEHTPCfU3bbXR5BTwC4Iw6eb9FlwUA7jG/1TXVsZNaLgA4H8D9NTfObAOCCTXXEy4A2AcADdQEer04wby7zvsILgCg438BsFkTEGB0nGRmhBl109kVADyEOa5uxrDQh7PBWAA/WbTNookrAG4CcG0WGsoLOc+AYKI86/gcXQHA4I+n4oub1IgEAGcDAiJbcgXAxiYgoy4bQq4O5KuAIOCrIUtyBQCVvaNYDF6WpdbyQnNNRCDMkmcdlqMPAA4GwDg9pX8tsMaA4MacDOIDAOrJ4IthOSkcQdYnAVwBYGGEsbyH8AXAJTm//7yt154Bw9sJglcCjiHC2hcA2xWhYV8C6C0iTf2YjAZwW8pq+QKAuo0HMDJlJSuW7SEAowAsr1iOdQ4vAQDuCHIVrNTeAu8bEPBeQ1IkAQAq9GkRgLlnUpqlJ8zK4grcpakF1EoBYAyA69OzeZIScRv9ulQkkwJAk46IJXzHbeQkgmqkAECj8JPnaAnrNIQH1wOHVK2rJAAuAMCYOiV7C/Dm0h5VfiFIAmBbc427SYEi9q7uvuVeAHh5JTpJAoDCM4burOha1GPAAwG8G1sVaQCcZK5gxdajLuPxqn3UvAfSAKAjcr46lgKQooIgBAC4982DECV3C0QDQQgA8HiYx8RK7hZg4qxDY7wOQgCAajN9y77u+mtPE2vIhFtB1wShAKBbwzIY5lE7F9bfyLD7P5dQAGDGMJ6AKflb4OWQdzBCAYBqv23eY/4mUA68sMqTRHEKCYArAdwqLnFzGRIABIIohQTAbqEXMKKWyIMZg2/4ShCjkACgkHpCKOaqfxhxMXis5KIwNAAYI3+DrA0az010URgaAIwPSD40OkNIMaKIkUXeFBoAG5qr1Jt6S6oMWi3wR7HbepjEp3ZoAOg6IBxwmf30BF/2MQCg6wBfL7Xvz5tZ9/qwjwEAvUTq46Hu+7KABl8FPIJ3ohgAoGC/AtB1gJOLeuz0KIAze2zVpkEsADQ1p5CrX8r2O6LYdn+zbCe2jwUABogkfUnSxXgJ9WEC7PNc5IkFgP2LHaz3XATUPlYW+M2El39n1bqlUSwAbFKEibGAg1I4C1wF4Jay7GMBgHL9YOoIlpVR29tZ4BMAvKJXimICgGlXuVhRCmcB1nFiihprigkAblhcZC2ZNnSxwJ3FJ/flZTrGBMDVRaWRm8sIp21LW4DV0pjE05piAuDiEBEt1po2o+HHZaOxYwLg7KKANPPlKIWzAAtzb1GGfUwAMMa91AKljCLa9j8LEAAEghXFBMBRpuizlWDayNkC/BTkJ6EVKQCszJRVo71N0i4roWMCQF8BVi7xbtSnTMaRmADQRaC3b3tkwEulW/bYqqVBTADoZ2AZz7i1ZU1HHrxZU0wA6EaQtVucG/Iri9vB1hQTAKyqwRg2pXAWYBGPUsk5YgLgJXOrJZz6yjnpw6CvAeysPgpmgeSPg/8KproypgWSDgjhk88ZQCmMBZIPCTu5SCc/OYzuyrWItEo+KJQ5hJlLWCmMBZIPC/8WwI5hdG881+Qvhgw2haUa76kABsjiahjjAL0uMAYwXF1YZnE59FmJa8x18ZigHllcD+eFEBZY3khQcWUFZJMgggkMOAMoyVogmxQxt5eNU5e1Uy25ZZUkimHKDFFSkrFAVmniWAJlpozeysVYIKtEkWMBXKOuE7NAdqliWQWLJdGU/C2QXbLoIwG86q+3cjC5gTn1B6FQEUF3hUpvHsQK6TKdV1RfOV4yN3BXVUMAYH2TtmyndO2ahWSLiwsePEYPWngjBAD07N8fX7+bJ/8tf1bdcwgBgPEARoYWvOb8DwcQ3Pm0oTQAepvpv2/NHRRSvWjODwEAvf7lB42ozg8BAO5TH+Nng8b2ju58aQAcBGB6Y93npzjD5Rb4sXDrLbkG0Ktf5X3AwpAHAFhZvqtMDykAcNH3OQBd/Nn7xSuY036YOJ+BjE3jDKBkZwHW+2FQR+UkNQPw3c81gFLPFmAiRyZ0TIIkAMBVv2gxwyQsIy8E3/MXAuDUnwxJAIC5//j9r9TeAtzPH5XiV5IvALY2de65A6i0bgvwAaHzl6doIF8AnGsuJqaoWwoyjU69UoovAJ4BcGIKlk5MhrkmVUvyVVN9ALCLmf7XS8z4VYvDRE3M07OwakFsxvcBgBaC6mzhNaae7xgbw6fSxgcALFPGAwwlgGXxGAU9KzdjuAJgPwAf5qZsAHl575GOz3YX1BUAWg8YmGicz8DNbMkVAE2e/ulwPvUEQPbkAoCtinw/SwE0cfXPqZ7O59RfC3IBwGkAHq+F9vZKTDL1jmbYd8mjpQsAxrnWqc3DJJ2kZK1DPvXMxlFLcgEAa9UPqqU11io12zzxE2quZ+mw8AFVxa5FcgTj8ngRk7/VkcasdJiyM8AwAFMrlTjM4LyGxWybTGjJ1GuNoaYDoMPxXNcsaYzXWxRtKgAa7/gODJQFQD9TBj7Xh0Ud38VzZQHA7kxUNDAzBDBbCQsrN3aqb+cvFwDkcgFkhUlRzzT1tf2O930QXQCwDYBpCZd/4VcKn3Y6fpGvgere3wUAtAmTQDxcxLsxFWwKxGokzxmna2q6Eh5xBQCH4EUQJoPYtcR4kk2/MMWopxSyvCbJuEm8fABAO/Eu4AjzGxrBcAxC4fucT7t1hewIcmU7hC8AWhUfboDAItG+tAoAI2v5m2P+5ElcIzdrfI3ZXX9JAHSMMwQAI4b7t/y2N3/fvEgft6zLjwWP+X+MMehw+vyQSivvtRb4G+bDcpBfpSbyAAAAAElFTkSuQmCC;" parent="1" vertex="1">
          <mxGeometry x="-362" y="293" width="151" height="151" as="geometry" />
        </mxCell>
      </root>
    </mxGraphModel>
  </diagram>
</mxfile>
